<?xml version="1.0" standalone="no"?>
<!DOCTYPE svg PUBLIC "-//W3C//DTD SVG 20010904//EN"
 "http://www.w3.org/TR/2001/REC-SVG-20010904/DTD/svg10.dtd">
<svg version="1.0" xmlns="http://www.w3.org/2000/svg"
 width="300.000000pt" height="300.000000pt" viewBox="0 0 300.000000 300.000000"
 preserveAspectRatio="xMidYMid meet">
<metadata>
Created by potrace 1.10, written by Peter Selinger 2001-2011
</metadata>
<g transform="translate(0.000000,300.000000) scale(0.100000,-0.100000)"
fill="#000000" stroke="none">
<path d="M1305 2945 c-130 -20 -275 -55 -275 -66 0 -6 -4 -8 -9 -4 -12 7 -115
-32 -206 -78 -410 -207 -715 -606 -790 -1031 -8 -49 -14 -107 -14 -130 l2 -41
7 40 c37 205 100 405 160 509 49 86 68 117 119 186 234 321 561 512 1006 586
211 36 410 22 611 -42 86 -27 331 -146 363 -176 12 -10 23 -17 25 -16 3 2 61
-50 130 -115 125 -117 234 -249 266 -319 9 -21 20 -35 25 -30 4 4 5 -2 2 -13
-3 -11 3 -36 13 -55 11 -19 19 -30 19 -25 0 6 -6 21 -14 35 -19 33 -19 45 1
29 12 -10 11 -4 -5 26 -11 22 -21 44 -21 49 0 27 -109 166 -205 263 -62 62
-105 108 -96 103 29 -15 181 -165 181 -178 0 -6 4 -12 10 -12 21 0 144 -181
200 -295 71 -146 102 -238 139 -424 16 -78 31 -145 35 -148 11 -11 6 93 -9
178 -25 146 -63 259 -135 404 -219 441 -595 716 -1075 785 -121 17 -362 20
-460 5z"/>
<path d="M1280 2730 c-311 -55 -557 -180 -733 -370 -158 -171 -273 -396 -318
-625 -21 -105 -18 -378 4 -485 55 -257 167 -471 337 -640 230 -230 551 -360
890 -360 378 0 739 169 960 449 339 430 379 999 103 1465 -67 112 -265 311
-385 385 -157 96 -319 156 -503 186 -117 19 -225 18 -355 -5z m461 -54 c587
-133 972 -634 945 -1231 -20 -453 -261 -832 -656 -1030 -172 -87 -338 -125
-539 -125 -210 0 -363 35 -546 125 -336 166 -560 457 -645 840 -26 116 -31
336 -11 445 69 370 310 697 634 861 127 65 295 113 492 143 60 9 224 -5 326
-28z m-552 10 c-2 -3 -40 -17 -84 -31 -275 -92 -481 -247 -642 -485 -244 -360
-269 -832 -66 -1234 61 -122 121 -204 223 -307 109 -109 190 -168 317 -230 57
-28 103 -53 103 -55 0 -22 -235 96 -328 165 -205 152 -344 351 -427 609 -71
222 -76 492 -15 718 45 166 160 373 282 508 134 147 341 270 568 334 37 11 76
15 69 8z"/>
<path d="M1447 2078 c-25 -39 -193 -340 -221 -396 -15 -30 -25 -56 -23 -59 5
-4 67 98 67 109 0 3 28 54 63 114 34 60 71 125 81 146 11 20 28 47 38 60 l18
23 19 -24 c10 -13 45 -74 77 -135 48 -93 122 -221 163 -286 9 -13 10 -13 10 0
1 19 -253 463 -267 468 -6 2 -17 -7 -25 -20z"/>
<path d="M690 1759 c0 -5 5 -9 10 -9 6 0 10 -6 10 -13 0 -8 10 -22 23 -33 l22
-19 -19 23 c-19 22 -19 22 2 22 11 0 87 -20 169 -44 207 -61 284 -79 258 -60
-11 8 -38 19 -60 24 -22 5 -96 28 -165 50 -152 48 -250 71 -250 59z"/>
<path d="M2203 1739 c-36 -10 -47 -31 -12 -22 19 5 20 3 14 -18 -4 -13 -55
-119 -115 -234 -59 -116 -122 -245 -140 -287 -37 -89 -62 -125 -99 -140 -14
-6 -21 -12 -14 -15 28 -10 69 23 95 77 15 30 92 186 172 347 81 160 146 294
146 297 0 7 -7 7 -47 -5z"/>
<path d="M1960 1670 c-91 -27 -173 -49 -182 -49 -10 -1 -18 -6 -18 -12 0 -6 6
-9 13 -6 7 3 74 21 148 40 74 20 147 41 162 46 16 6 39 11 53 11 13 0 24 5 24
10 0 16 -26 11 -200 -40z"/>
<path d="M1045 1075 c4 -11 8 -26 8 -32 0 -10 70 -13 321 -11 l321 2 -308 6
-309 5 -21 25 c-16 20 -19 21 -12 5z"/>
<path d="M1728 1043 c18 -2 45 -2 60 0 15 2 0 4 -33 4 -33 0 -45 -2 -27 -4z"/>
<path d="M2790 2108 c0 -3 7 -25 15 -49 9 -24 13 -49 11 -55 -3 -7 -1 -14 4
-16 5 -2 22 -55 39 -118 76 -296 65 -542 -37 -871 -47 -150 -79 -218 -94 -198
-8 12 -9 12 -6 -1 3 -8 -6 -30 -19 -49 -13 -18 -23 -39 -23 -46 0 -7 -11 -24
-25 -39 -13 -14 -23 -28 -22 -29 2 -3 -4 -11 -76 -91 -126 -143 -323 -287
-491 -360 -42 -18 -73 -36 -68 -41 4 -4 1 -5 -5 -1 -7 4 -32 2 -55 -5 -24 -6
-54 -13 -68 -16 -14 -2 -41 -8 -60 -13 -84 -21 -206 -32 -345 -32 -159 1 -164
1 -323 33 -394 78 -717 322 -947 714 -54 91 -126 298 -150 430 -8 44 -19 96
-24 115 l-9 35 -1 -36 c-3 -112 64 -349 144 -511 162 -324 438 -583 750 -703
301 -115 589 -135 948 -64 31 7 57 15 57 20 0 5 7 6 15 3 8 -4 15 -1 15 5 0 6
6 8 13 5 33 -12 283 106 422 199 111 75 301 264 370 367 72 108 139 246 178
368 47 145 57 191 63 291 7 111 -7 90 -35 -54 -20 -103 -52 -224 -71 -270 -54
-128 -147 -305 -160 -305 -4 0 17 46 45 102 111 220 155 413 157 679 1 200
-18 311 -88 504 -32 90 -44 118 -44 103z"/>
<path d="M3 1500 c0 -41 2 -58 4 -37 2 20 2 54 0 75 -2 20 -4 3 -4 -38z"/>
</g>
</svg>
